# xmcd
#
# Track frame offsets:
# 150
# 17444
# 33385
# 49259
# 69296
# 87372
# 104921
# 124899
# 140299
# 158975
# 174238
# 194148
# 212306
# 230182
# 246268
# 261962
# 277730
# 292632
# 304298
# 319339
#
# Disc length: 4453 seconds
#
#
# Revision: 0
# Processed by: cddbd v1.5.2PL0 Copyright (c) Steve Scherf et al.
# Submitted via: FreeRIP 2.96 
#
DISCID=24116314
DTITLE=Antonio Marcos - O melhor de - 
DYEAR=1900
DGENRE=
TTITLE0=Como vai voce
TTITLE1=Se eu pudesse conversar com Deus
TTITLE2=Tenho um amor melhor que o seu
TTITLE3=Oracao de um jovem triste
TTITLE4=Por que chora a tarde
TTITLE5=Amanda
TTITLE6=O Homem de Nazare
TTITLE7=Eu vou ter sempre voce
TTITLE8=Menina de tranca
TTITLE9=Vocde pediu e eu ja vou daqui
TTITLE10=Sonhos de um palaço
TTITLE11=Sempre no meu coracao
TTITLE12=Volte amor
TTITLE13=Vamos dar as maos e cantar
TTITLE14=Boneca cobiçada
TTITLE15=Sou eu
TTITLE16=Pensando nela
TTITLE17=Minha amiga, Minha namorada
TTITLE18=Meu segredo
TTITLE19=Imagine
EXTD=
EXTT0=
EXTT1=
EXTT2=
EXTT3=
EXTT4=
EXTT5=
EXTT6=
EXTT7=
EXTT8=
EXTT9=
EXTT10=
EXTT11=
EXTT12=
EXTT13=
EXTT14=
EXTT15=
EXTT16=
EXTT17=
EXTT18=
EXTT19=
PLAYORDER=
